<svg width="705" height="705" viewBox="0 0 705 705" fill="none" xmlns="http://www.w3.org/2000/svg">
<rect x="142.702" y="63.787" width="505.376" height="505.376" rx="126.344" transform="rotate(9 142.702 63.787)" fill="url(#paint0_linear)"/>
<rect x="230.327" y="688.741" width="505.376" height="505.376" rx="126.344" transform="rotate(-115 230.327 688.741)" fill="url(#paint1_linear)"/>
<rect x="-0.000244141" y="411.435" width="505.376" height="505.376" rx="126.344" transform="rotate(-54.5 -0.000244141 411.435)" fill="url(#paint2_linear)"/>
<path d="M100.034 298.439C97.6904 298.146 91.6602 298 81.9434 298H79.5996V216.994H65.0977C60.8008 216.994 58.2617 217.214 57.4805 217.653C56.6992 218.093 56.0889 218.483 55.6494 218.825L55.4297 218.752V200.002L55.6494 199.782C57.2607 200.319 61.6064 200.588 68.6865 200.588H114.609C118.906 200.588 121.445 200.368 122.227 199.929C123.008 199.489 123.618 199.099 124.058 198.757L124.277 198.83V217.58L124.058 217.8C122.446 217.263 118.101 216.994 111.021 216.994H100.034V298.439ZM158.042 289.797C158.042 293.996 158.14 296.73 158.335 298H140.098V193.264H158.042V227.175C164.341 222.39 170.835 219.997 177.524 219.997C185.728 219.997 192.319 222.707 197.3 228.127C202.183 233.547 204.624 240.725 204.624 249.66V278.811C204.624 287.062 204.746 292.019 204.99 293.679C205.234 295.339 205.552 296.413 205.942 296.901C206.382 297.39 206.748 297.829 207.041 298.22L206.895 298.513C202.939 298.171 200.059 298 198.252 298H193.052C191.44 298 189.316 298.073 186.68 298.22V255.812C186.68 249.074 185.19 244.094 182.212 240.871C179.966 238.43 176.914 237.209 173.057 237.209C167.344 237.209 162.339 240.505 158.042 247.097V289.797ZM221.982 260.354C221.982 254.641 222.959 249.343 224.912 244.46C226.865 239.577 229.624 235.305 233.188 231.643C240.806 223.879 250.767 219.997 263.071 219.997C273.472 219.997 281.821 223.439 288.12 230.324C294.321 236.965 297.422 245.314 297.422 255.373C297.422 259.23 297.129 261.867 296.543 263.283C291.66 264.65 281.724 265.334 266.733 265.334H240.952C242.222 270.559 245.176 274.636 249.814 277.565C254.453 280.446 260.483 281.887 267.905 281.887C275.669 281.887 282.334 280.495 287.9 277.712C289.365 276.979 290.464 276.296 291.196 275.661C291.099 277.712 290.977 279.812 290.83 281.96L290.024 293.386C286.313 295.925 280.308 297.683 272.007 298.659C269.565 298.952 267.222 299.099 264.976 299.099C252.573 299.099 242.319 295.485 234.214 288.259C226.06 280.983 221.982 271.682 221.982 260.354ZM277.939 251.125C275.938 240.627 270.225 235.378 260.801 235.378C253.379 235.378 247.739 238.576 243.882 244.973C242.71 246.926 241.807 249.074 241.172 251.418C242.344 251.467 243.784 251.516 245.493 251.564H250.913C252.72 251.613 254.453 251.638 256.113 251.638H260.288C262.778 251.638 265.22 251.613 267.612 251.564L273.618 251.345C275.229 251.296 276.67 251.223 277.939 251.125ZM396.519 260.134C395.054 260.231 393.491 260.28 391.831 260.28C390.171 260.28 387.705 260.158 384.434 259.914V298H365.024V200.075C371.86 199.196 380.259 198.757 390.22 198.757C403.794 198.757 413.901 201.271 420.542 206.301C427.231 211.281 430.576 218.996 430.576 229.445C430.576 237.551 427.524 244.484 421.421 250.246C419.419 252.102 417.124 253.713 414.536 255.08L429.478 286.574C432.407 293.068 434.653 296.926 436.216 298.146L435.85 298.513C431.113 297.731 423.667 297.756 413.511 298.586L396.519 260.134ZM391.611 216.042C389.121 216.042 386.729 216.164 384.434 216.408V244.387C386.826 244.729 389.634 244.899 392.856 244.899C396.079 244.899 398.789 244.631 400.986 244.094C403.184 243.508 405.088 242.629 406.699 241.457C410.166 238.869 411.899 234.987 411.899 229.812C411.899 224.636 410.093 220.998 406.479 218.898C403.11 216.994 398.154 216.042 391.611 216.042ZM446.982 260.354C446.982 254.641 447.959 249.343 449.912 244.46C451.865 239.577 454.624 235.305 458.188 231.643C465.806 223.879 475.767 219.997 488.071 219.997C498.472 219.997 506.821 223.439 513.12 230.324C519.321 236.965 522.422 245.314 522.422 255.373C522.422 259.23 522.129 261.867 521.543 263.283C516.66 264.65 506.724 265.334 491.733 265.334H465.952C467.222 270.559 470.176 274.636 474.814 277.565C479.453 280.446 485.483 281.887 492.905 281.887C500.669 281.887 507.334 280.495 512.9 277.712C514.365 276.979 515.464 276.296 516.196 275.661C516.099 277.712 515.977 279.812 515.83 281.96L515.024 293.386C511.313 295.925 505.308 297.683 497.007 298.659C494.565 298.952 492.222 299.099 489.976 299.099C477.573 299.099 467.319 295.485 459.214 288.259C451.06 280.983 446.982 271.682 446.982 260.354ZM502.939 251.125C500.938 240.627 495.225 235.378 485.801 235.378C478.379 235.378 472.739 238.576 468.882 244.973C467.71 246.926 466.807 249.074 466.172 251.418C467.344 251.467 468.784 251.516 470.493 251.564H475.913C477.72 251.613 479.453 251.638 481.113 251.638H485.288C487.778 251.638 490.22 251.613 492.612 251.564L498.618 251.345C500.229 251.296 501.67 251.223 502.939 251.125ZM588.926 293.459C581.992 297.219 575.718 299.099 570.103 299.099C564.487 299.099 559.678 298.586 555.674 297.561C551.67 296.486 548.276 294.924 545.493 292.873C539.829 288.723 536.997 282.717 536.997 274.855C536.997 267.824 540.464 261.965 547.397 257.277C554.917 252.199 565.122 249.66 578.013 249.66L580.942 249.733C581.528 249.782 582.188 249.831 582.92 249.88C583.652 249.88 584.312 249.929 584.897 250.026C584.507 242.214 581.138 237.648 574.79 236.33C572.69 235.891 570.444 235.671 568.052 235.671C565.708 235.671 563.389 235.891 561.094 236.33C558.848 236.721 556.65 237.258 554.502 237.941C549.766 239.455 546.372 241.188 544.321 243.142L544.102 242.995L541.904 226.809C550.547 222.268 559.995 219.997 570.249 219.997C586.167 219.997 596.348 225.734 600.791 237.209C602.207 240.871 602.915 244.997 602.915 249.587V276.101C602.915 281.765 604.917 285.622 608.921 287.673L595.664 299.831C592.881 298.366 590.635 296.242 588.926 293.459ZM584.971 263.21C583.652 262.966 582.285 262.844 580.869 262.844H577.939C567.148 262.844 560.288 265.236 557.358 270.021C556.479 271.438 556.04 272.927 556.04 274.489C556.04 276.052 556.309 277.443 556.846 278.664C557.432 279.836 558.384 280.812 559.702 281.594C562.241 283.059 566.001 283.791 570.981 283.791C576.011 283.791 580.698 282.595 585.044 280.202C584.995 279.665 584.971 279.104 584.971 278.518V263.21ZM642.832 289.797C642.832 293.996 642.93 296.73 643.125 298H624.521V188.869H642.832V289.797ZM83.7744 486.586C79.5752 486.195 74.668 486 69.0527 486H63.2666L95.127 396.718C96.543 392.714 97.251 390.395 97.251 389.76C97.251 389.076 97.2266 388.661 97.1777 388.515L97.251 388.368C100.425 388.515 103.794 388.588 107.358 388.588C110.288 388.588 113.804 388.539 117.905 388.441L117.979 388.588C117.881 388.783 117.832 389.052 117.832 389.394C117.832 390.321 118.564 392.787 120.029 396.791L152.549 486.22C151.572 486.171 150.425 486.146 149.106 486.146C149.106 486.146 147.837 486.098 145.298 486C144.077 486 142.979 486 142.002 486H130.649L123.765 464.906H90.6592L83.7744 486.586ZM118.052 447.328L106.992 413.271L96.2256 447.328H118.052ZM215.098 481.898C208.896 485.365 202.695 487.099 196.494 487.099C190.293 487.099 184.873 486.122 180.234 484.169C175.596 482.216 171.641 479.53 168.369 476.112C161.631 469.081 158.262 459.95 158.262 448.72C158.262 437.099 162.168 427.431 169.98 419.716C177.842 411.903 187.9 407.997 200.156 407.997C203.916 407.997 207.603 408.485 211.216 409.462V376.869H229.16V455.165C229.16 461.659 229.453 465.907 230.039 467.909C230.674 469.911 231.357 471.376 232.09 472.304C232.871 473.231 233.848 474.11 235.02 474.94L221.25 487.099C218.711 485.731 216.66 483.998 215.098 481.898ZM199.937 470.253C204.038 470.253 207.798 469.472 211.216 467.909V427.333C207.798 425.917 204.087 425.209 200.083 425.209C196.079 425.209 192.637 425.746 189.756 426.82C186.924 427.895 184.482 429.384 182.432 431.288C178.135 435.292 175.986 440.492 175.986 446.889C175.986 453.871 177.939 459.438 181.846 463.588C186.045 468.031 192.075 470.253 199.937 470.253ZM239.268 409.462H259.995L277.866 459.853L295.151 409.462H315.439L285.19 486H270.103L239.268 409.462ZM323.569 387.636C327.476 381.532 331.553 376.161 335.801 371.522L351.548 383.9C349.448 386.488 347.495 389.027 345.688 391.518C345.688 391.518 343.809 394.179 340.049 399.501L323.569 387.636ZM342.832 477.797C342.832 481.996 342.93 484.73 343.125 486H324.521V409.462H342.832V477.797ZM389.341 487.099C375.571 487.099 365.195 484.584 358.213 479.555C358.311 478.09 358.457 476.43 358.652 474.574L359.312 469.301C359.702 465.834 359.946 463.686 360.044 462.855C360.142 461.977 360.215 461.513 360.264 461.464C360.312 461.366 360.703 461.757 361.436 462.636C362.168 463.466 363.56 464.491 365.61 465.712C367.661 466.933 370.029 468.007 372.715 468.935C378.525 470.937 384.58 471.938 390.879 471.938C399.326 471.938 403.55 469.13 403.55 463.515C403.55 461.708 402.744 460.365 401.133 459.486C398.252 458.021 394.004 456.923 388.389 456.19C382.822 455.409 378.257 454.286 374.692 452.821C371.128 451.356 368.223 449.599 365.977 447.548C361.826 443.69 359.751 438.637 359.751 432.387C359.751 424.77 362.681 418.788 368.54 414.442C374.351 410.146 382.383 407.997 392.637 407.997C402.793 407.997 411.46 410.878 418.638 416.64C418.296 417.909 417.93 419.13 417.539 420.302C416.416 423.524 415.586 425.844 415.049 427.26L413.364 431.581C413.267 431.972 413.193 432.167 413.145 432.167C413.047 432.167 412.656 431.654 411.973 430.629C408.896 427.064 404.111 424.721 397.617 423.598C395.615 423.207 393.564 423.012 391.465 423.012C382.578 423.012 378.135 425.697 378.135 431.068C378.135 432.924 379.062 434.34 380.918 435.316C384.385 437.172 389.121 438.539 395.127 439.418C401.182 440.297 405.771 441.493 408.896 443.007C412.021 444.472 414.536 446.254 416.44 448.354C419.956 452.162 421.714 457.216 421.714 463.515C421.714 470.399 418.955 475.99 413.438 480.287C407.676 484.828 399.644 487.099 389.341 487.099ZM433.14 448.134C433.14 442.763 434.043 437.636 435.85 432.753C437.705 427.821 440.342 423.524 443.76 419.862C451.23 411.952 460.923 407.997 472.837 407.997C484.702 407.997 494.126 411.732 501.108 419.203C507.798 426.332 511.143 435.585 511.143 446.962C511.143 458.339 507.7 467.763 500.815 475.233C493.54 483.144 483.896 487.099 471.885 487.099C459.482 487.099 449.766 483.217 442.734 475.453C436.338 468.373 433.14 459.267 433.14 448.134ZM450.938 447.694C450.938 450.771 451.45 453.749 452.476 456.63C453.501 459.511 454.966 461.977 456.87 464.027C460.923 468.471 466.245 470.692 472.837 470.692C478.94 470.692 483.75 468.52 487.266 464.174C490.684 459.975 492.393 454.506 492.393 447.768C492.393 440.932 490.635 435.414 487.119 431.215C483.359 426.723 478.208 424.477 471.665 424.477C465.024 424.477 459.824 426.869 456.064 431.654C452.646 436.049 450.938 441.396 450.938 447.694ZM543.735 477.797C543.735 481.996 543.833 484.73 544.028 486H525.791V409.462H543.735V415.102C547.886 410.365 552.231 407.997 556.772 407.997C561.362 407.997 564.976 408.559 567.612 409.682L566.294 429.384L566.001 429.604C564.292 426.576 560.752 425.062 555.381 425.062C553.33 425.062 551.23 425.771 549.082 427.187C546.982 428.554 545.2 430.385 543.735 432.68V477.797ZM602.329 487.099C588.56 487.099 578.184 484.584 571.201 479.555C571.299 478.09 571.445 476.43 571.641 474.574L572.3 469.301C572.69 465.834 572.935 463.686 573.032 462.855C573.13 461.977 573.203 461.513 573.252 461.464C573.301 461.366 573.691 461.757 574.424 462.636C575.156 463.466 576.548 464.491 578.599 465.712C580.649 466.933 583.018 468.007 585.703 468.935C591.514 470.937 597.568 471.938 603.867 471.938C612.314 471.938 616.538 469.13 616.538 463.515C616.538 461.708 615.732 460.365 614.121 459.486C611.24 458.021 606.992 456.923 601.377 456.19C595.811 455.409 591.245 454.286 587.681 452.821C584.116 451.356 581.211 449.599 578.965 447.548C574.814 443.69 572.739 438.637 572.739 432.387C572.739 424.77 575.669 418.788 581.528 414.442C587.339 410.146 595.371 407.997 605.625 407.997C615.781 407.997 624.448 410.878 631.626 416.64C631.284 417.909 630.918 419.13 630.527 420.302C629.404 423.524 628.574 425.844 628.037 427.26L626.353 431.581C626.255 431.972 626.182 432.167 626.133 432.167C626.035 432.167 625.645 431.654 624.961 430.629C621.885 427.064 617.1 424.721 610.605 423.598C608.604 423.207 606.553 423.012 604.453 423.012C595.566 423.012 591.123 425.697 591.123 431.068C591.123 432.924 592.051 434.34 593.906 435.316C597.373 437.172 602.109 438.539 608.115 439.418C614.17 440.297 618.76 441.493 621.885 443.007C625.01 444.472 627.524 446.254 629.429 448.354C632.944 452.162 634.702 457.216 634.702 463.515C634.702 470.399 631.943 475.99 626.426 480.287C620.664 484.828 612.632 487.099 602.329 487.099Z" fill="white"/>
<defs>
<linearGradient id="paint0_linear" x1="395.39" y1="63.787" x2="395.39" y2="569.163" gradientUnits="userSpaceOnUse">
<stop offset="0.317708" stop-color="#006DFF"/>
<stop offset="1" stop-color="#006DFF" stop-opacity="0"/>
</linearGradient>
<linearGradient id="paint1_linear" x1="483.015" y1="688.741" x2="483.015" y2="1194.12" gradientUnits="userSpaceOnUse">
<stop offset="0.536458" stop-color="#FF0000"/>
<stop offset="1" stop-color="white" stop-opacity="0"/>
</linearGradient>
<linearGradient id="paint2_linear" x1="252.688" y1="411.435" x2="252.688" y2="916.811" gradientUnits="userSpaceOnUse">
<stop stop-color="#0066FF" stop-opacity="0"/>
<stop offset="1" stop-color="#FA00FF"/>
</linearGradient>
</defs>
</svg>
